{"accessors" : [{"bufferView" : 0, "byteOffset" : 0, "componentType" : 5123, "count" : 18738, "type" : "SCALAR", "max" : [18737], "min" : [0]}, {"bufferView" : 1, "byteOffset" : 0, "componentType" : 5126, "count" : 18738, "type" : "VEC3", "max" : [11018.2939453125, 64560.5390625, 2600.001220703125], "min" : [-15454.5224609375, -23598.84765625, -0.000579155923333019], "name" : "POSITION"}, {"bufferView" : 1, "byteOffset" : 12, "componentType" : 5126, "count" : 18738, "type" : "VEC3", "max" : [1.0000038146972656, 0.999077320098877, 1.0000044107437134], "min" : [-1.0000039339065552, -0.994672417640686, -1.0000044107437134], "name" : "NORMAL"}, {"bufferView" : 1, "byteOffset" : 24, "componentType" : 5126, "count" : 18738, "type" : "VEC4", "max" : [1.0000040531158447, 0.9957290887832642, 1.0000044107437134, 1], "min" : [-1.0000040531158447, -0.9957290887832642, -1.0000044107437134, 1], "name" : "TANGENT"}, {"bufferView" : 1, "byteOffset" : 40, "componentType" : 5126, "count" : 18738, "type" : "VEC2", "max" : [0.2959862947463989, -0.019999999552965164], "min" : [0.019999999552965164, -0.9799999594688416], "name" : "TEXCOORD_0"}], "asset" : {"generator" : "Aspose.3D 22.1", "version" : "2.0"}, "buffers" : [{"uri" : "data:application/octet-stream;base64,", "byteLength" : 936908}], "bufferViews" : [{"buffer" : 0, "byteOffset" : 0, "byteLength" : 37476, "target" : 34963}, {"buffer" : 0, "byteOffset" : 37480, "byteLength" : 899424, "byteStride" : 48, "target" : 34962}], "images" : [{"uri" : "E:\\INVICSA-AIRTECH\\ProyectosUnity\\oso\\CASTILLO\\Assets\\MATERIALES\\Muro\\TexturesCom_Brick_StoneCladding6_1K_normal.tif"}, {"uri" : "E:\\INVICSA-AIRTECH\\ProyectosUnity\\oso\\CASTILLO\\Assets\\MATERIALES\\Muro\\TexturesCom_Brick_StoneCladding6_1K_albedo.tif"}], "materials" : [{"name" : "", "pbrMetallicRoughness" : {"baseColorFactor" : [1, 1, 1, 1], "baseColorTexture" : {"index" : 1, "texCoord" : 0}, "metallicFactor" : 0, "roughnessFactor" : 0}, "normalTexture" : {"index" : 0, "texCoord" : 0, "scale" : 1}, "emissiveFactor" : [0, 0, 0], "alphaMode" : "OPAQUE", "doubleSided" : false}], "meshes" : [{"primitives" : [{"attributes" : {"POSITION" : 1, "NORMAL" : 2, "TANGENT" : 3, "TEXCOORD_0" : 4}, "indices" : 0, "material" : 0, "mode" : 4}], "name" : "Scene"}], "nodes" : [{"matrix" : [-0.712710251505346, 0.4300162231829196, 0, 0, -4.620681856046946E-17, 0, 0.8323880434036255, 0, 3.126334041636779, 5.181595951455203, 1.3437441848316548E-15, 0, 0, 0, 0, 1], "mesh" : 0, "name" : "muromedioLP"}], "samplers" : [{"magFilter" : 9729, "minFilter" : 9729, "wrapS" : 10497, "wrapT" : 10497}, {"magFilter" : 9729, "minFilter" : 9729, "wrapS" : 10497, "wrapT" : 10497}], "scene" : 0, "scenes" : [{"nodes" : [0]}], "textures" : [{"sampler" : 0, "source" : 0}, {"sampler" : 1, "source" : 1}]}